Coordinates
version=1
nRows=19
nColumns=18
inDegrees=yes

Units are S.I. units (second, meters, Newtons, ...)
Angles are in degrees.

endheader
time	pelvis_tilt	pelvis_list	pelvis_rotation	pelvis_tx	pelvis_ty	pelvis_tz	hip_flexion_r	hip_adduction_r	hip_rotation_r	knee_angle_r	ankle_angle_r	hip_flexion_l	hip_adduction_l	hip_rotation_l	knee_angle_l	ankle_angle_l	lumbar_extension
      0.90000000	     -3.75731182	      2.74393806	      6.48810800	     -1.15662058	      0.85245635	     -0.27897076	      4.57531114	      2.69740259	      0.00000000	    -20.34688099	     20.44362319	     24.61663201	      5.07454260	      0.00000000	    -46.60251242	     14.22796096	     -5.00000214
      0.91000000	     -3.91647116	      2.80870474	      6.42889045	     -1.14751555	      0.85331207	     -0.27972249	      3.60031819	      2.62700673	      0.00000000	    -19.40217807	     20.06960691	     25.27399113	      5.18678506	      0.00000000	    -43.48461453	     14.85871078	     -5.00000214
      0.92000000	     -4.17894263	      2.91330487	      6.20306159	     -1.13879558	      0.85381678	     -0.28047049	      2.97991534	      2.46027222	      0.00000000	    -18.90515129	     19.88201292	     25.90018190	      5.35008169	      0.00000000	    -40.07178332	     15.12103997	     -5.00000214
      0.93000000	     -4.31726654	      2.93858414	      6.05593801	     -1.12953079	      0.85434829	     -0.28108007	      1.98151166	      2.41733480	      0.00000000	    -17.97314544	     19.44678279	     26.19156334	      5.38103983	      0.00000000	    -36.38177125	     15.43535194	     -5.00000214
      0.94000000	     -4.55501977	      2.95082507	      5.74792946	     -1.12064717	      0.85440357	     -0.28151604	      1.38195646	      2.35547300	      0.00000000	    -17.59394392	     19.27977026	     26.46946003	      5.36677169	      0.00000000	    -32.47938361	     15.49382855	     -5.00000214
      0.95000000	     -4.62658610	      2.96189528	      5.43383556	     -1.11088235	      0.85459208	     -0.28193669	      0.20955157	      2.30638929	      0.00000000	    -16.50809429	     18.66091050	     26.26434859	      5.31324806	      0.00000000	    -28.24732033	     15.30721436	     -5.00000214
      0.96000000	     -4.72598585	      2.92965918	      5.04329803	     -1.10126000	      0.85434467	     -0.28217323	     -0.74755405	      2.29478387	      0.00000000	    -15.78008606	     18.30198477	     25.99513041	      5.18117928	      0.00000000	    -23.95810602	     14.90215435	     -5.00000214
      0.97000000	     -4.79599918	      2.86299923	      4.58921827	     -1.09144828	      0.85379897	     -0.28227095	     -1.69251480	      2.31409020	      0.00000000	    -15.16067833	     18.08704378	     25.59463832	      4.98584971	      0.00000000	    -19.68455104	     14.42991573	     -5.00000214
      0.98000000	     -4.83653319	      2.78406949	      4.02907390	     -1.08149665	      0.85298621	     -0.28225773	     -2.63776970	      2.32044064	      0.00000000	    -14.58382762	     17.71434997	     25.09184663	      4.74323053	      0.00000000	    -15.55988087	     13.54700232	     -5.00000214
      0.99000000	     -4.86966783	      2.67562962	      3.40910371	     -1.07149942	      0.85183796	     -0.28214285	     -3.43161311	      2.34241547	      0.00000000	    -14.32984383	     17.68036969	     24.59147357	      4.45363603	      0.00000000	    -11.75558945	     13.23736229	     -5.00000214
      1.00000000	     -4.76325668	      2.53214131	      2.84429552	     -1.06086095	      0.85068445	     -0.28196080	     -4.58750934	      2.42243832	      0.00000000	    -13.72110803	     17.34720212	     23.94362618	      4.14035840	      0.00000000	     -8.41830161	     12.05677789	     -5.00000214
      1.01000000	     -4.68543544	      2.39271149	      2.21513423	     -1.05035206	      0.84925974	     -0.28179315	     -5.46393262	      2.45729798	      0.00000000	    -13.59980978	     17.31455084	     23.45601833	      3.83785782	      0.00000000	     -5.71629148	     11.75111310	     -5.00000214
      1.02000000	     -4.50917316	      2.23574842	      1.69442314	     -1.03937154	      0.84788293	     -0.28172173	     -6.56107405	      2.51974591	      0.00000000	    -13.30441226	     17.06946426	     22.97375088	      3.57297409	      0.00000000	     -3.72146097	     10.89269228	     -5.00000214
      1.03000000	     -4.34096931	      2.10718849	      1.15191117	     -1.02841752	      0.84643162	     -0.28178135	     -7.46944603	      2.51390883	      0.00000000	    -13.37746883	     17.02774332	     22.67318027	      3.36694796	      0.00000000	     -2.51088571	     10.72750650	     -5.00000214
      1.04000000	     -4.21098806	      1.95541016	      0.75223207	     -1.01766128	      0.84488272	     -0.28201962	     -8.21170057	      2.53775123	      0.00000000	    -13.69032240	     17.01490983	     22.81515018	      3.21652580	      0.00000000	     -2.50605097	     10.67745834	     -5.00000214
      1.05000000	     -3.86723261	      1.86622700	      0.37556702	     -1.00578106	      0.84378628	     -0.28251216	     -9.46216612	      2.46806851	      0.00000000	    -13.57274318	     16.64099081	     22.44046128	      3.17741162	      0.00000000	     -2.51070347	     10.20908778	     -5.00000214
      1.06000000	     -3.60785277	      1.76152587	      0.11519344	     -0.99431101	      0.84255689	     -0.28316659	    -10.39569216	      2.41910946	      0.00000000	    -13.86389005	     16.49829477	     22.59698234	      3.18189452	      0.00000000	     -3.73142615	     10.08794285	     -5.00000214
      1.07000000	     -3.32978867	      1.69263858	     -0.10076374	     -0.98268823	      0.84145211	     -0.28407708	    -11.28165972	      2.30756086	      0.00000000	    -14.30604952	     16.26353537	     22.83566878	      3.26212121	      0.00000000	     -5.52887615	      9.98813712	     -5.00000214
      1.08000000	     -3.06831042	      1.59089600	     -0.23567474	     -0.97111636	      0.84039275	     -0.28503701	    -12.03635966	      2.24399524	      0.00000000	    -14.94471705	     15.86275288	     23.27452089	      3.32963069	      0.00000000	     -7.94297218	      9.92604069	     -5.00000214
